<svg xmlns="http://www.w3.org/2000/svg" xmlns:xlink="http://www.w3.org/1999/xlink" width="460px" height="178px" viewBox="0 0 460 178" version="1.1">
    <!-- Generator: Sketch 42 (36781) - http://www.bohemiancoding.com/sketch -->
    <title>safe-logo</title>
    <desc>Created with Sketch.</desc>
    <defs/>
    <g id="SAFE-Case-Study-Assets" stroke="none" stroke-width="1" fill="none" fill-rule="evenodd">
        <g id="Background-Image" transform="translate(-411.000000, -263.000000)">
            <g id="safe-logo" transform="translate(411.000000, 263.000000)">
                <path d="M119.24006,113.590126 C119.24006,116.53861 116.800213,118.935868 113.788663,118.935868 L11.641388,118.935868 C8.62695054,118.935868 6.18999149,116.53861 6.18999149,113.590126 L6.18999149,11.492771 C6.18999149,8.54141613 8.62695054,6.15277097 11.641388,6.15277097 L113.788663,6.15277097 C116.800213,6.15277097 119.24006,8.54141613 119.24006,11.492771 L119.24006,113.590126 Z" id="Fill-1"/>
                <path d="M116.08183,0 L9.33493912,0 C4.18094397,0 0,4.16864516 0,9.30480645 L0,115.800484 C0,120.939516 4.18094397,125.111032 9.33493912,125.111032 L116.08183,125.111032 C121.232938,125.111032 125.408107,120.939516 125.408107,115.800484 L125.408107,9.30480645 C125.408107,4.16864516 121.232938,0 116.08183,0 L116.08183,0 Z M37.5245496,101.899258 L37.5245496,103.885968 L37.5245496,118.955677 L25.4177139,118.955677 L25.4177139,101.462871 C25.4177139,101.04371 25.3946148,100.532677 25.9576563,100.369032 C28.6689176,99.6972258 31.9461078,99.0512581 36.3753675,98.4799355 C37.4783513,98.3622258 37.5303244,99.1316452 37.5245496,99.9154194 L37.5245496,101.899258 Z M36.7998141,88.0009032 L36.7420663,89.3818387 C36.7160797,90.1799677 36.0779661,90.7972258 35.3243567,90.7656452 C35.3243567,90.7656452 32.7343658,91.0642258 31.1029892,91.2623226 C29.5842209,91.4489355 27.3349423,91.9054194 27.3349423,91.9054194 C26.6015447,91.8795806 26.0327284,91.2422258 26.0327284,90.4641935 L26.0327284,90.4125161 L26.0327284,90.3981613 C27.6958664,73.5226129 42.9990453,60.7066129 56.1020312,57.2212581 C39.1010657,68.5099032 37.4032791,76.3447742 36.7998141,88.0009032 L36.7998141,88.0009032 Z M58.3513098,101.827484 L58.3513098,103.885968 L58.3513098,118.955677 L46.2329246,118.955677 L46.2329246,98.9909677 C46.2329246,98.1354194 46.9345609,97.4377742 47.7950038,97.4377742 C47.7950038,97.4377742 47.8787381,97.4320323 47.9971212,97.4119355 C49.8161783,97.2999677 51.7305194,97.1994839 53.7632435,97.1133548 C55.8854768,97.1076129 56.7834558,97.0473226 56.7834558,97.0473226 C57.6467861,97.0473226 58.3513098,97.7449677 58.3513098,98.6005161 L58.3513098,101.827484 Z M79.1578583,118.955677 L67.05391,118.955677 L67.05391,103.885968 L67.05391,101.827484 L67.05391,98.6005161 C67.05391,97.7449677 67.7555463,97.0473226 68.6188766,97.0473226 C68.6188766,97.0473226 69.5110808,97.1076129 71.6275393,97.1133548 C73.6689256,97.1994839 75.5803793,97.2999677 77.396549,97.4119355 C77.5178195,97.4320323 77.5957791,97.4377742 77.5957791,97.4377742 C78.4648842,97.4377742 79.1578583,98.1354194 79.1578583,98.9909677 L79.1578583,118.955677 Z M99.9846185,118.955677 L87.8748955,118.955677 L87.8748955,103.885968 L87.8748955,101.899258 L87.8748955,99.9154194 C87.8691207,99.1316452 87.9124316,98.3622258 89.0298524,98.4799355 C93.4533373,99.0512581 96.7305275,99.6972258 99.4302392,100.369032 C100.00483,100.532677 99.9846185,101.04371 99.9846185,101.462871 L99.9846185,118.955677 Z M119.2262,112.398387 C119.2262,116.610097 116.988471,118.955677 112.657383,118.955677 L107.003869,118.955677 L107.003869,103.030419 C107.636208,103.274452 108.118402,103.475419 108.433128,103.587387 L108.687219,103.587387 C110.725718,103.587387 112.359982,101.96529 112.359982,99.949871 C112.359982,97.9287097 110.639096,97.0645484 108.687219,96.295129 C107.434091,95.8041935 101.133801,92.9619355 88.3628648,91.1216452 C84.1501595,90.4527097 75.2425544,89.4880645 70.2127171,89.3215484 C56.8845145,88.8507097 51.4446676,89.6746774 46.611173,90.0134516 C46.3455329,90.0392903 46.1347532,89.8411935 46.6082856,89.7550645 C74.7747969,84.8744194 100.888372,90.0794839 105.944196,91.8078065 C106.230048,91.9054194 106.651607,91.5723871 106.619846,91.3283548 C103.960558,69.5664194 85.3051164,52.7109677 62.7054973,52.7109677 C38.691056,52.7109677 19.198271,71.736871 18.528396,95.4453226 C17.7574623,95.7927097 17.1770964,96.0826774 16.7208885,96.295129 C13.9085684,97.6387419 13.0539003,97.9287097 13.0539003,99.949871 C13.0539003,101.96529 14.6968265,103.587387 16.7208885,103.587387 L16.9403303,103.587387 C17.3243534,103.409387 17.806548,103.176839 18.395576,102.915581 L18.395576,118.955677 L12.7564989,118.955677 C8.20019397,118.955677 6.19056897,116.397645 6.19056897,112.398387 L6.19056897,12.7097742 C6.19056897,8.76219355 8.73724892,6.15248387 12.7564989,6.15248387 L112.657383,6.15248387 C116.561137,6.15248387 119.2262,9.08087097 119.2262,12.7097742 L119.2262,112.398387 Z" id="Fill-3" fill="#FEFEFE"/>
                <path d="M75.5575689,31.2875194 C75.5575689,30.1994226 74.9598787,29.2893258 74.1860576,29.0941 C73.9926023,22.1578419 70.3573755,19.7261323 65.5036691,18.1040355 C65.5065565,18.0437452 65.5094439,17.9834548 65.5094439,17.9116806 L63.7250355,15.5000677 C64.3920231,15.1469387 64.8597807,14.4722613 64.8597807,13.6655194 C64.8597807,12.5027774 63.912716,11.5553581 62.7375474,11.5553581 C61.5710409,11.5553581 60.6182015,12.5027774 60.6182015,13.6655194 C60.6182015,14.4607774 61.0801842,15.1153581 61.7240727,15.4828419 L59.9223399,17.9116806 C59.9223399,17.9834548 59.9252273,18.0437452 59.9310021,18.1040355 C55.0975075,19.7232613 51.4593933,22.1291323 51.251501,29.0424226 C51.251501,29.0596484 49.9435123,29.5276161 49.9319628,31.2875194 C49.9204132,32.3382935 50.4719051,33.2196806 51.2081901,33.452229 L51.2081901,45.2318097 C50.4719051,45.4586161 49.9319628,46.3428742 49.9319628,47.3907774 C49.9319628,48.1688097 50.1340802,48.5334226 50.5902882,48.9324871 C50.6422613,48.9812935 50.824167,49.1391968 50.9454374,49.1937452 C51.1879784,49.3143258 51.6441864,49.4521323 52.2216648,49.3028419 C55.1061697,48.5362935 58.6403378,47.9994226 62.5325425,47.9994226 C66.872293,47.9994226 70.3082898,48.5994548 73.0715242,49.1966161 C73.6547774,49.3631323 74.0792241,49.294229 74.2928911,49.1822613 C74.3795129,49.1334548 74.6278286,48.938229 74.697126,48.8664548 C75.0840366,48.4673903 75.219744,48.1515839 75.219744,47.4108742 C75.219744,46.3543581 74.6855765,45.472971 73.9868275,45.2461645 L73.9926023,33.5010355 C74.8674822,33.4378742 75.5575689,32.478971 75.5575689,31.2875194 L75.5575689,31.2875194 Z M57.3092499,43.4690355 C57.3150247,43.6527774 57.1648803,43.8250355 56.9887494,43.865229 C56.9887494,43.865229 55.9781621,44.0317452 55.646112,44.1035194 C55.3111745,44.1695516 54.2630511,44.4021 54.2630511,44.4021 C54.0869202,44.4480355 53.9396632,44.3360677 53.9396632,44.1494548 L53.9396632,32.9469387 C53.9396632,32.7603258 54.078258,32.5708419 54.2601637,32.5220355 C54.2601637,32.5220355 54.7712322,32.4100677 55.2649762,32.300971 C55.7558329,32.1890032 56.9974116,31.9851645 56.9974116,31.9851645 C57.1706551,31.9507129 57.3121373,32.0712935 57.3121373,32.2492935 L57.3092499,43.4690355 Z M64.4006853,43.2020355 C64.4006853,43.3800355 64.2592031,43.5350677 64.07441,43.5350677 L62.9165657,43.4920032 L62.3275377,43.4920032 L61.3256126,43.5235839 C61.1494816,43.5379387 60.9618011,43.3943903 60.9618011,43.2135194 L60.9675759,31.8904226 C60.9675759,31.7009387 61.1148329,31.5545194 61.299626,31.5545194 C61.299626,31.5545194 62.2813394,31.5114548 62.6133895,31.5114548 C62.9454396,31.5114548 64.07441,31.5344226 64.07441,31.5344226 C64.2592031,31.5344226 64.4006853,31.6865839 64.4006853,31.8731968 L64.4006853,43.2020355 Z M71.2293679,44.2097452 C71.2293679,44.4021 71.1369714,44.4911 70.9608405,44.4451645 C70.9608405,44.4451645 69.9906767,44.2241 69.5951039,44.1638097 C69.2428421,44.1035194 68.1773943,43.9197774 68.1773943,43.9197774 C67.9954886,43.8853258 67.8597812,43.7130677 67.8597812,43.5264548 L67.8597812,32.1717774 C67.8597812,31.9909065 68.0012634,31.8674548 68.1802817,31.9076484 C68.1802817,31.9076484 69.0724859,32.0626806 69.5315813,32.1574226 C70.0426497,32.2636484 70.9117548,32.4416484 70.9117548,32.4416484 C71.0849983,32.4904548 71.2293679,32.6856806 71.2293679,32.8694226 L71.2293679,44.2097452 Z" id="Fill-5" fill="#FEFEFE"/>
                <path d="M28.9533257,169.22661 C28.3440859,171.219061 27.2497643,174.434545 26.467281,175.858545 C25.2430267,176.165739 21.5789259,177.032771 18.4403305,177.032771 C7.57507355,177.032771 2.8282007,169.571126 2.8282007,162.677932 C2.8282007,153.568352 9.89076212,147.536448 19.6154992,147.536448 C23.1496673,147.536448 26.1179065,148.492481 27.3392734,148.713545 C27.6857605,151.182577 27.9514006,152.925255 28.2112659,155.262223 L26.9003898,155.566545 C25.7685321,150.972997 23.1496673,149.098255 18.4403305,149.098255 C11.1554399,149.098255 7.27478475,155.219158 7.27478475,161.8109 C7.27478475,169.918513 12.0707433,175.470965 18.7059706,175.470965 C23.1496673,175.470965 25.5057794,173.08519 27.6857605,168.750029 L28.9533257,169.22661 Z" id="Fill-7" fill="#FEFEFE"/>
                <path d="M70.7702726,176.72529 C70.250542,176.72529 69.7712349,176.72529 69.2457295,176.685097 C65.9743141,176.512839 64.1379326,175.553935 62.183168,172.740387 C60.6499628,170.615871 59.0849962,167.920032 57.7770075,165.801258 C57.0320603,164.58971 56.2928879,164.064323 54.0233976,164.064323 L52.6287871,164.064323 L52.6287871,170.960387 C52.6287871,174.649581 53.0214725,174.905097 56.5094423,175.166355 L56.5094423,176.380774 L45.0407203,176.380774 L45.0407203,175.166355 C48.6153119,174.905097 49.0079973,174.649581 49.0079973,170.960387 L49.0079973,153.525 C49.0079973,149.841548 48.6615102,149.715226 45.2572747,149.408032 L45.2572747,148.193613 L56.0734461,148.193613 C59.2582397,148.193613 61.39491,148.586935 63.0522731,149.666419 C64.796258,150.791839 65.9310032,152.744097 65.9310032,155.348065 C65.9310032,159.074581 63.618202,161.377097 60.3929849,162.766645 C61.1321573,164.193516 62.9685387,167.101806 64.2707526,169.054065 C65.8472688,171.313516 66.7596848,172.438935 67.8078081,173.564355 C68.9858642,174.859161 69.9849019,175.341484 70.9492909,175.599871 L70.7702726,176.72529 Z M54.7221465,162.634581 C56.9454385,162.634581 58.3891346,162.284323 59.4747941,161.420161 C61.1754682,160.122484 61.8742171,158.379806 61.8742171,156.037097 C61.8742171,151.36029 58.7789326,149.623355 55.4584315,149.623355 C54.1966411,149.623355 53.4574687,149.801355 53.1109816,150.054 C52.8020307,150.275065 52.6287871,150.791839 52.6287871,151.966065 L52.6287871,162.634581 L54.7221465,162.634581 Z" id="Fill-9" fill="#FEFEFE"/>
                <path d="M107.838614,169.532368 C107.578749,170.959239 106.709644,175.038884 106.314071,176.379626 L85.2909682,176.379626 L85.2909682,175.168077 C89.2582451,174.858013 89.6076196,174.513497 89.6076196,171.005174 L89.6076196,153.747787 C89.6076196,149.843271 89.2582451,149.716948 85.856897,149.406884 L85.856897,148.195335 L105.309259,148.195335 C105.309259,149.27769 105.525813,152.226174 105.66152,154.436819 L104.393955,154.649271 C104.00127,152.834819 103.565274,151.878787 102.996457,150.928497 C102.387218,150.015529 101.209162,149.716948 98.0676788,149.716948 L94.7529525,149.716948 C93.4045404,149.716948 93.3121438,149.803077 93.3121438,151.100755 L93.3121438,160.942432 L97.4122408,160.942432 C101.339094,160.942432 101.558536,160.595045 102.13024,157.692497 L103.389143,157.692497 L103.389143,166.021174 L102.13024,166.021174 C101.558536,162.89469 101.25536,162.633432 97.4584391,162.633432 L93.3121438,162.633432 L93.3121438,170.830045 C93.3121438,172.871303 93.5777839,173.775658 94.3631546,174.341239 C95.1918362,174.858013 96.7163793,174.903948 98.8992478,174.903948 C102.213974,174.903948 103.432454,174.562303 104.393955,173.434013 C105.133128,172.566981 105.961809,171.094174 106.527738,169.357239 L107.838614,169.532368 Z" id="Fill-11" fill="#FEFEFE"/>
                <path d="M136.401564,148.194761 C141.94247,148.194761 146.042567,149.320181 148.745166,151.878213 C150.878949,153.959665 152.40638,157.1206 152.40638,161.200245 C152.40638,166.40531 150.402529,170.26389 147.044492,172.775987 C143.770189,175.296697 139.456425,176.379052 134.091651,176.379052 L123.754786,176.379052 L123.754786,175.210568 C127.499734,174.952181 127.851996,174.693794 127.851996,171.0046 L127.851996,153.609406 C127.851996,149.88289 127.499734,149.716374 124.144584,149.449374 L124.144584,148.194761 L136.401564,148.194761 Z M131.605606,170.697406 C131.605606,173.996148 133.043527,174.822987 136.225434,174.822987 C144.385204,174.822987 148.135927,168.748019 148.135927,161.80889 C148.135927,157.341665 146.478563,153.483084 142.987706,151.447568 C141.027167,150.187213 138.494924,149.664697 135.572883,149.664697 C133.742276,149.664697 132.607531,149.88289 132.171535,150.187213 C131.732651,150.494406 131.605606,150.970987 131.605606,152.659116 L131.605606,170.697406 Z" id="Fill-13" fill="#FEFEFE"/>
                <path d="M169.541898,176.379626 L169.541898,175.168077 C173.119377,174.903948 173.465864,174.651303 173.465864,170.959239 L173.465864,153.60711 C173.465864,149.926529 173.119377,149.665271 169.541898,149.406884 L169.541898,148.195335 L181.100129,148.195335 L181.100129,149.406884 C177.519762,149.665271 177.176163,149.926529 177.176163,153.60711 L177.176163,170.959239 C177.176163,174.694368 177.519762,174.903948 181.100129,175.168077 L181.100129,176.379626 L169.541898,176.379626 Z" id="Fill-15" fill="#FEFEFE"/>
                <path d="M220.830069,154.909955 C220.350761,152.834245 219.955189,151.749019 219.435458,151.057116 C218.733822,150.014955 217.991762,149.716374 214.723234,149.716374 L211.627949,149.716374 L211.627949,171.047665 C211.627949,174.472729 211.971549,174.903374 216.117844,175.167503 L216.117844,176.379052 L203.600999,176.379052 L203.600999,175.167503 C207.574051,174.903374 207.91765,174.472729 207.91765,171.047665 L207.91765,149.716374 L205.215051,149.716374 C201.594261,149.716374 200.722269,150.055148 200.150565,151.057116 C199.627947,151.794955 199.28146,153.006503 198.758842,154.909955 L197.494164,154.909955 C197.710719,152.3146 197.930161,149.492439 198.01967,147.109535 L198.888775,147.109535 C199.498015,148.108632 200.069718,148.194761 201.291085,148.194761 L218.520155,148.194761 C219.692436,148.194761 220.04181,147.933503 220.743447,147.109535 L221.652975,147.109535 C221.652975,149.099116 221.878192,152.265794 222.091859,154.783632 L220.830069,154.909955 Z" id="Fill-17" fill="#FEFEFE"/>
                <path d="M291.345962,149.408032 C288.729984,149.58029 287.725172,150.186065 287.502843,151.966065 C287.37291,153.137419 287.286288,155.000677 287.286288,158.985581 L287.286288,162.591516 C287.286288,167.713323 286.503805,171.391032 283.974449,174.038065 C281.970599,176.116645 279.045671,177.032484 276.172716,177.032484 C273.634698,177.032484 271.105342,176.42671 269.191001,174.951032 C266.572136,172.95571 265.347882,169.702903 265.347882,164.624161 L265.347882,153.783387 C265.347882,149.881742 265.001395,149.715226 261.553849,149.408032 L261.553849,148.193613 L272.852215,148.193613 L272.852215,149.408032 C269.401781,149.623355 269.058181,149.881742 269.058181,153.783387 L269.058181,163.673871 C269.058181,170.656065 271.850289,174.649581 277.258375,174.649581 C283.532678,174.649581 285.498993,169.438774 285.498993,162.284323 L285.498993,158.985581 C285.498993,155.000677 285.36906,153.174742 285.195816,151.834 C284.930176,150.140129 284.020648,149.623355 280.968674,149.408032 L280.968674,148.193613 L291.345962,148.193613 L291.345962,149.408032 Z" id="Fill-19" fill="#FEFEFE"/>
                <path d="M337.091783,149.408032 C334.643275,149.537226 333.600926,150.099935 333.424795,152.006258 C333.254439,153.315419 333.167817,155.261935 333.167817,159.292774 L333.167817,176.774097 L331.81363,176.774097 L313.233261,154.044645 L313.146639,154.044645 L313.146639,164.931355 C313.146639,168.927742 313.276572,171.003452 313.406505,172.258065 C313.623059,174.474452 314.627872,174.996968 317.593224,175.166355 L317.593224,176.380774 L307.256359,176.380774 L307.256359,175.166355 C309.79149,175.037161 310.880037,174.474452 311.093704,172.347065 C311.223636,171.003452 311.356456,168.927742 311.356456,164.931355 L311.356456,155.388258 C311.356456,152.227323 311.269835,152.055065 310.481576,151.010032 C309.612471,149.924806 308.653857,149.58029 306.603809,149.408032 L306.603809,148.193613 L313.05713,148.193613 L331.241927,169.964161 L331.377634,169.964161 L331.377634,159.292774 C331.377634,155.302129 331.204391,153.315419 331.074458,152.092387 C330.855016,150.140129 329.80978,149.58029 326.79823,149.408032 L326.79823,148.193613 L337.091783,148.193613 L337.091783,149.408032 Z" id="Fill-21" fill="#FEFEFE"/>
                <path d="M353.309688,176.379626 L353.309688,175.168077 C356.881392,174.903948 357.233654,174.651303 357.233654,170.959239 L357.233654,153.60711 C357.233654,149.926529 356.881392,149.665271 353.309688,149.406884 L353.309688,148.195335 L364.865032,148.195335 L364.865032,149.406884 C361.287553,149.665271 360.941066,149.926529 360.941066,153.60711 L360.941066,170.959239 C360.941066,174.694368 361.287553,174.903948 364.865032,175.168077 L364.865032,176.379626 L353.309688,176.379626 Z" id="Fill-23" fill="#FEFEFE"/>
                <path d="M410.704116,161.939232 C410.704116,171.312942 404.115087,177.034781 396.134335,177.034781 C388.240204,177.034781 381.957239,170.919619 381.957239,162.593813 C381.957239,154.78191 387.454834,147.535587 396.613642,147.535587 C404.031353,147.535587 410.704116,153.266039 410.704116,161.939232 M386.409598,161.376523 C386.409598,169.532942 390.899493,175.470103 397.049638,175.470103 C401.891795,175.470103 406.254645,171.439265 406.254645,163.110587 C406.254645,153.960813 401.452911,149.097394 395.74165,149.097394 C390.856182,149.097394 386.409598,153.266039 386.409598,161.376523" id="Fill-25" fill="#FEFEFE"/>
                <path d="M457.497484,149.408032 C455.05475,149.537226 454.006626,150.099935 453.830495,152.006258 C453.654364,153.315419 453.567743,155.261935 453.567743,159.292774 L453.567743,176.774097 L452.21933,176.774097 L433.638961,154.044645 L433.55234,154.044645 L433.55234,164.931355 C433.55234,168.927742 433.676498,171.003452 433.80643,172.258065 C434.031647,174.474452 435.033572,174.996968 437.998924,175.166355 L437.998924,176.380774 L427.664947,176.380774 L427.664947,175.166355 C430.188528,175.037161 431.282849,174.474452 431.502291,172.347065 C431.629336,171.003452 431.762156,168.927742 431.762156,164.931355 L431.762156,155.388258 C431.762156,152.227323 431.675535,152.055065 430.893051,151.010032 C430.012397,149.924806 429.05667,149.58029 427.009509,149.408032 L427.009509,148.193613 L433.465718,148.193613 L451.650514,169.964161 L451.783334,169.964161 L451.783334,159.292774 C451.783334,155.302129 451.607203,153.315419 451.480158,152.092387 C451.257829,150.140129 450.209705,149.58029 447.20393,149.408032 L447.20393,148.193613 L457.497484,148.193613 L457.497484,149.408032 Z" id="Fill-27" fill="#FEFEFE"/>
                <path d="M189.74065,69.5388581 C177.241129,63.3289548 172.130445,58.8129226 172.130445,51.0440839 C172.130445,42.9881484 177.94854,37.062471 185.903306,37.062471 C197.548159,37.062471 202.8061,47.5070516 205.783001,56.4070516 L210.613609,55.2758903 C209.478863,46.5223097 208.488488,40.3066645 207.925446,35.0815032 C205.361442,34.0910194 197.268082,31.271729 188.175683,31.271729 C168.010136,31.271729 155.654985,43.4130516 155.654985,58.9478581 C155.654985,72.5045677 165.737758,80.132729 180.368175,87.4737935 C191.016877,93.1238581 197.268082,98.3490194 197.268082,106.680568 C197.268082,115.574826 191.724289,121.500503 183.064999,121.500503 C169.427846,121.500503 161.045746,105.687213 158.207439,96.6522774 L153.238237,98.199729 C154.234388,106.815503 156.082319,118.681213 157.367208,122.212503 C159.347959,123.059439 162.041896,124.1906 166.02361,125.31889 C170.288289,126.584987 175.254603,127.296987 180.368175,127.296987 C201.108313,127.296987 214.878287,114.722148 214.878287,98.6303742 C214.878287,84.6487613 204.651144,76.7421161 189.74065,69.5388581" id="Fill-29" fill="#FEFEFE"/>
                <path d="M305.630469,33.3896419 L305.630469,38.4655129 C315.999094,39.3239323 317.416804,40.3058032 317.416804,53.0241903 L317.416804,105.120771 C317.416804,118.246835 316.016419,119.222965 305.953857,120.199094 C297.22527,119.067932 295.360015,117.155868 290.572718,104.839416 C281.341725,80.5539 272.543841,55.987029 263.442781,31.2708677 L256.204088,33.1054161 L227.090512,105.686352 C222.3985,117.554932 220.700713,119.105255 211.325351,120.233545 L211.189643,125.174481 L242.988494,125.174481 L242.988494,120.233545 C232.631418,118.964577 232.345566,116.989352 234.329205,110.208126 C236.038541,104.563803 237.880697,99.4764484 239.448551,95.1010935 L266.705534,95.1010935 C268.839317,100.891835 270.970212,106.814642 272.396584,111.055061 C274.671849,117.270706 273.955776,118.964577 265.573676,120.233545 L265.573676,125.174481 L305.630469,125.174481 L306.190623,125.174481 L349.931728,125.174481 L349.931728,120.233545 C337.582351,119.243061 336.441831,118.393255 336.441831,105.120771 L336.441831,82.8133516 L347.948089,82.8133516 C360.733462,82.8133516 362.154059,83.9445129 363.710364,93.5421581 L368.826823,93.5421581 L368.826823,65.4468677 L363.710364,65.4468677 C362.00969,74.4818032 360.733462,75.750771 347.948089,75.750771 L336.441831,75.750771 L336.441831,44.5462226 C336.441831,39.8895129 337.010648,39.6052871 341.985624,39.6052871 L349.091497,39.6052871 C357.040488,39.6052871 360.874945,40.5929 363.860508,43.6992871 C366.268593,46.3779 367.969267,50.4805129 369.531346,55.8406097 L374.506323,54.8558677 C373.796025,46.6592548 373.085726,35.7926419 372.944244,33.3896419 L305.630469,33.3896419 Z M241.856636,87.6164806 C245.549611,77.5881903 249.098216,67.4163516 253.07993,57.1153194 L253.510151,57.1153194 L264.011597,87.6164806 L241.856636,87.6164806 Z" id="Fill-31" fill="#FEFEFE"/>
                <path d="M454.749552,100.745129 C452.046953,106.960774 449.488724,111.482548 446.789012,114.586065 C443.379002,118.117355 438.268317,119.104968 431.029625,119.104968 C425.630202,119.104968 420.808257,118.823613 418.244252,117.692452 C415.403058,116.277065 414.840017,112.748645 414.840017,106.113839 L414.840017,81.6819032 L424.348199,81.6819032 C436.420386,81.6819032 438.123948,82.2503548 440.119136,92.4135806 L445.22982,92.4135806 L445.22982,63.8905161 L440.119136,63.8905161 C438.123948,73.7723871 436.281792,74.4815161 424.348199,74.4815161 L414.840017,74.4815161 L414.840017,44.5459355 C414.840017,39.8892258 415.403058,39.605 420.663887,39.605 L427.475245,39.605 C435.427123,39.605 439.264468,40.5926129 441.684102,43.1305484 C444.236557,45.6742258 446.084488,50.3338065 447.502198,55.2747419 L452.612882,54.5742258 C452.046953,45.8149032 451.336655,35.9301613 451.195172,33.3893548 L384.311619,33.3893548 L384.311619,38.3360323 C394.382843,39.1772258 395.806327,39.8892258 395.806327,52.1654839 L395.806327,106.398065 C395.806327,118.395839 394.382843,119.242774 382.313543,120.233258 L382.313543,125.174194 L454.749552,125.174194 C455.878523,120.945258 458.866974,108.089065 459.715867,101.738484 L454.749552,100.745129 Z" id="Fill-33" fill="#FEFEFE"/>
            </g>
        </g>
    </g>
</svg>