<?xml version="1.0" encoding="UTF-8"?>
<svg width="229px" height="58px" viewBox="0 0 229 58" version="1.1" xmlns="http://www.w3.org/2000/svg" xmlns:xlink="http://www.w3.org/1999/xlink">
    <!-- Generator: Sketch 42 (36781) - http://www.bohemiancoding.com/sketch -->
    <title>logo-blacksmith-applications-stacked-red</title>
    <desc>Created with Sketch.</desc>
    <defs></defs>
    <g id="Mood-Board/Web-Design-Style-Guide" stroke="none" stroke-width="1" fill="none" fill-rule="evenodd">
        <g id="blacksmith-apps-web-branding-guide" transform="translate(-35.000000, -798.000000)" fill="#88272D">
            <g id="Brand-Elements" transform="translate(-1.000000, 707.000000)">
                <g id="logo-blacksmith-applications-stacked-red" transform="translate(36.000000, 91.000000)">
                    <path d="M32.5427057,48.2932857 C31.2023581,39.8103714 22.5832577,39.2336857 22.5832577,39.2336857 C27.127143,43.3922857 27.2913007,46.9742 26.4762577,48.6653143 C25.6439781,50.3937143 21.2035122,51.8586286 19.6333437,49.2685143 C17.5854763,45.878 21.5219781,42.8570286 21.5219781,42.8570286 C16.2878097,42.6092857 14.9425373,46.2044571 14.9425373,46.2044571 C13.9206556,40.1459429 17.9523688,35.3228286 17.9523688,35.3228286 C9.42765914,37.7952857 9.76828638,46.2450571 9.76828638,46.2450571 C9.76828638,46.2450571 7.68184194,41.8403714 8.53464122,38.5824286 C8.53464122,38.5824286 9.22492437,35.7495429 11.3212183,33.7634571 C13.7786591,31.4235714 15.9512864,30.4872857 16.4470427,26.6974 C16.8484082,23.6043429 17.8571573,22.0201143 17.8571573,22.0201143 C19.2886125,32.77 29.2103043,36.3916857 29.2103043,36.3916857 C27.8256341,33.0566857 28.5627022,30.4607714 28.5627022,30.4607714 C30.0417631,33.9242 31.9476341,35.0212286 33.5169817,36.7222857 C35.2209387,38.5675143 35.9711394,40.5544286 35.8841358,42.7352286 C35.7380355,46.1124857 32.5427057,48.2932857 32.5427057,48.2932857 L32.5427057,48.2932857 Z M34.35829,51.6274571 C36.8157308,50.3133429 39.0408885,48.6089714 40.9336269,46.5831143 C40.9336269,46.5831143 44.9522075,42.0914286 43.8310104,33.9606571 C43.1538599,29.0596571 40.2310319,25.3418571 39.3084656,21.9621143 C39.3084656,21.9621143 38.5016305,19.7763429 38.7995767,16.9244 C38.7995767,16.9244 35.3883796,19.1242571 35.875928,22.8047714 C35.875928,22.8047714 31.7752685,17.4820286 34.2852398,8.26997143 C34.2852398,8.26997143 26.1659996,11.2271429 26.1659996,20.7789143 C26.1659996,20.7789143 18.3184405,12.6489714 21.9061072,0.828571429 C21.9061072,0.828571429 12.7264082,3.73768571 12.7264082,11.6381143 C12.7264082,11.6381143 12.3513079,10.2146286 8.3286233,6.91857143 C8.3286233,6.91857143 11.3425588,16.4686857 7.74586344,21.1998286 C7.74586344,21.1998286 6.42685627,17.1017143 3.42523262,16.153 C3.42523262,16.153 5.43123978,19.9868 3.01647993,25.0651143 C3.01647993,25.0651143 1.60226129,27.9750571 0.796246953,30.6646 C0.796246953,30.6646 -2.83902545,40.2370857 5.42631505,47.8756857 C7.01289928,49.3464 8.79811434,50.6091429 10.7212219,51.6365714 L11.3638993,51.9696571 C11.9113652,52.2414286 12.4678599,52.4933143 13.0325624,52.7253143 C16.2361,54.1910571 21.5909244,56.7115714 22.4232039,57.5467714 L22.5093867,57.5467714 C23.2940606,56.753 28.2311036,54.4305143 31.4994835,52.9415714 C32.3793688,52.6026857 33.2321681,52.2149143 34.0693724,51.7840571 L34.35829,51.6274571 Z" id="Fill-1"></path>
                    <polygon id="Fill-4" points="187.76933 30.4311086 191.920878 30.4311086 191.920878 13.95828 187.76933 13.95828"></polygon>
                    <path d="M64.1891925,23.9867286 C64.7202427,24.0604714 65.1199667,24.2311571 65.382619,24.4979571 C65.6304971,24.7481857 65.755257,25.0879 65.7544362,25.5063286 C65.7536154,25.8999 65.6362427,26.2172429 65.4039595,26.4517286 C65.0510204,26.8063571 64.4313251,26.9853286 63.5612892,26.9836714 C63.5612892,26.9836714 58.7801961,26.9704143 57.5334183,26.9671 C57.5342391,26.5022714 57.5375222,24.4026714 57.538343,23.9378429 C58.085809,23.9378429 63.5448735,23.9453 63.5456943,23.9453 C63.7779774,23.9461286 63.9922032,23.9593857 64.1891925,23.9867286 M62.4819523,20.4305 C62.4819523,20.4305 58.6357373,20.4280143 57.5440885,20.4263571 C57.5449093,19.9648429 57.5490133,17.9613571 57.5498341,17.4998429 C58.0882713,17.5006714 62.6723753,17.5056429 62.6723753,17.5056429 C62.8611566,17.5056429 63.0327014,17.5172429 63.1870097,17.5387857 C64.5560849,17.7285286 64.6742785,18.6739286 64.6750993,18.9863 C64.6726369,19.4196429 64.4543072,20.4354714 62.4819523,20.4305 M69.989705,25.8899571 C69.9929882,23.9676714 68.8849237,22.4903286 67.2515545,21.9343571 C68.3399201,21.3411 68.976852,20.1753 68.9784935,18.6441 C68.9801351,17.9530714 68.8209022,16.6298429 67.7341781,15.5303286 C66.7336369,14.5178143 65.2430849,14.0041 63.306024,14.0041 L53.4623072,13.9800714 L53.4261925,30.4495857 L64.1850885,30.4727857 C67.7062713,30.4727857 69.9847803,28.6731286 69.989705,25.8899571" id="Fill-6"></path>
                    <polygon id="Fill-7" points="76.8011828 26.9178829 76.7658889 13.9424543 72.5511398 13.9573686 72.5519606 30.4185971 85.4802007 30.4194257 85.4810215 26.9162257"></polygon>
                    <path d="M123.313627,25.44808 C122.015961,26.3686229 119.583964,27.32728 117.632129,27.2891657 C114.263613,27.2179086 111.861165,25.0039657 111.921082,22.0244229 C111.985925,19.0813371 114.533652,16.9137943 117.847176,16.9817371 C119.872882,17.0306229 121.626907,17.6329943 123.060004,18.77228 L123.268484,18.9388229 L125.729208,16.4920514 L125.484613,16.2766229 C123.296391,14.3460514 120.970276,13.45368 117.944849,13.3865657 C112.187018,13.2647657 107.767892,16.9403086 107.663652,21.9341086 C107.556129,27.0173943 111.716706,30.7989943 117.556616,30.9274229 C120.624724,30.99288 123.893104,29.5967371 125.412384,28.24948 L125.622505,28.0630514 L123.553297,25.2773943 L123.313627,25.44808 Z" id="Fill-8"></path>
                    <path d="M145.841235,14.0382371 L145.049175,14.0357514 L140.121981,14.0216657 C140.121981,14.0216657 133.738709,19.8026086 132.856361,20.6013514 C132.859644,19.4860943 132.871956,13.9968086 132.871956,13.9968086 L128.687576,13.9868657 L128.689218,30.4530657 L132.870314,30.4646657 C132.870314,30.4646657 132.838304,26.0268371 132.838304,25.7724657 C132.994253,25.6299514 134.039117,24.6762657 134.350196,24.3920657 C134.731042,24.7748657 140.409257,30.4903514 140.409257,30.4903514 L146.112096,30.5094086 C146.112096,30.5094086 137.730203,22.1408371 137.296827,21.7074943 C137.750723,21.2998371 145.841235,14.0382371 145.841235,14.0382371" id="Fill-9"></path>
                    <path d="M154.676696,17.0244086 C156.159861,16.9813229 158.338233,17.1868086 160.30238,18.4081229 L160.544513,18.5597514 L162.449563,15.7981229 L162.213997,15.6216371 C160.143147,14.0763514 157.64795,13.3654371 154.585588,13.45078 C151.044706,13.5394371 147.508749,15.1916086 147.590008,18.6815514 C147.682757,22.1714943 150.763176,23.0166371 154.783398,23.7598657 C154.784219,23.7598657 155.478606,23.8800086 155.478606,23.8800086 C157.102126,24.1534371 158.942334,24.4633229 158.975986,25.5288657 C159.009638,27.1164086 156.085169,27.2754943 155.499126,27.2904086 C153.305979,27.34758 150.908456,26.5670657 148.921327,25.1477229 L148.68576,24.9786943 L146.598495,27.6972371 L146.800409,27.88698 C148.864692,29.8250086 152.338269,30.9709229 155.86766,30.8756371 C158.495004,30.8085229 160.661065,30.0081229 161.965298,28.6219229 C162.823022,27.7096657 163.259681,26.6093229 163.229312,25.4385514 C163.131638,21.4473229 159.135219,20.7165229 156.216495,20.1829229 L155.157678,19.9865514 C153.705703,19.7222371 151.899147,19.3924657 151.874524,18.5713514 C151.845796,17.4088657 153.622803,17.0517514 154.676696,17.0244086" id="Fill-10"></path>
                    <path d="M174.911103,22.4537886 C174.500709,22.0337029 165.736329,13.07436 165.736329,13.07436 L165.736329,13.8184171 L165.741253,30.4213314 L169.93302,30.4180171 C169.93302,30.4180171 169.931379,24.1623029 169.931379,22.9467886 C170.770225,23.7993886 174.862676,27.9563314 174.862676,27.9563314 C174.862676,27.9563314 179.004375,23.7215029 179.847325,22.8597886 C179.847325,24.0835886 179.844863,30.4229886 179.844863,30.4229886 L184.044017,30.4113886 L184.034988,13.0677314 C184.034988,13.0677314 175.319856,22.0328743 174.911103,22.4537886" id="Fill-11"></path>
                    <path d="M200.39396,30.4765143 L204.607068,30.4707143 C204.607068,30.4707143 204.599681,18.0968286 204.59886,17.5151714 C205.137297,17.5143429 209.979129,17.5093714 209.979129,17.5093714 L209.975846,13.9962286 L195.008767,14.0020286 L195.008767,14.3061143 L195.009587,17.5143429 L200.384932,17.5143429 C200.385752,18.096 200.39396,30.4765143 200.39396,30.4765143" id="Fill-12"></path>
                    <path d="M224.454966,30.4895229 L228.645091,30.48538 L228.640987,14.0175229 L228.337295,14.0183514 L224.450041,14.0208371 L224.450862,20.6933229 C224.450862,20.6933229 217.216432,20.70078 216.675532,20.70078 C216.674711,20.1456371 216.67389,14.0316086 216.67389,14.0316086 L212.482123,14.0208371 L212.48869,30.4953229 L216.677994,30.4978086 C216.677994,30.4978086 216.677173,24.7831514 216.676353,24.2313229 C217.218073,24.2304943 223.912424,24.2280086 224.452503,24.2280086 C224.453324,24.7798371 224.454966,30.4895229 224.454966,30.4895229" id="Fill-13"></path>
                    <path d="M97.5569548,20.4846886 L97.4272703,20.7200029 L95.1561484,24.8305457 L100.040661,24.8371743 L97.5569548,20.4846886 Z M107.500808,30.4118029 L102.95446,30.4101457 C102.95446,30.4101457 101.690446,28.0967743 101.5386,27.8192029 C101.204539,27.8183743 94.0333097,27.8134029 93.7000695,27.8134029 C93.5482237,28.0909743 92.2768222,30.40186 92.2768222,30.40186 L87.7148796,30.3985457 L97.2951233,13.4973457 L97.5553133,13.0374886 L107.500808,30.4118029 Z" id="Fill-14"></path>
                    <path d="M75.7335011,40.42948 L76.0101068,40.4344514 C76.6888989,40.42948 77.441562,40.48168 77.8716552,40.9100514 C78.1137878,41.1511657 78.2336229,41.4859086 78.2369061,41.9333371 C78.2393685,42.9856229 77.6237771,43.4595657 76.2407484,43.4703371 C76.2407484,43.4703371 73.66101,43.4761371 73.3942538,43.4769657 C73.3926122,43.2176229 73.3811211,40.70208 73.3794796,40.4427371 C73.6413111,40.44108 75.7335011,40.42948 75.7335011,40.42948 M80.589286,41.9656514 C80.577795,39.7077943 78.8804043,38.3116514 76.1611319,38.3249086 L70.9803147,38.3431371 L70.9811355,38.49228 L71.0279204,48.5519657 L73.4114903,48.5453371 C73.4114903,48.5453371 73.4008201,45.87568 73.3999993,45.6072229 C73.6700387,45.6063943 76.7447125,45.59148 76.7447125,45.59148 C79.4130961,45.5732514 80.5983147,43.7578514 80.589286,41.9656514" id="Fill-15"></path>
                    <path d="M91.5670043,40.42948 L91.84361,40.4344514 C92.5224022,40.42948 93.2750652,40.48168 93.7051584,40.9100514 C93.947291,41.1511657 94.0671262,41.4859086 94.0704093,41.9333371 C94.0728717,42.9856229 93.4572803,43.4595657 92.0742516,43.4703371 C92.0742516,43.4703371 89.4945133,43.4761371 89.227757,43.4769657 C89.2261154,43.2176229 89.2146244,40.70208 89.2129828,40.4427371 C89.4748143,40.44108 91.5670043,40.42948 91.5670043,40.42948 M96.4227892,41.9656514 C96.4112982,39.7077943 94.7139075,38.3116514 91.9946351,38.3249086 L86.8138179,38.3431371 L86.8146387,38.49228 L86.8614237,48.5519657 L89.2449935,48.5453371 C89.2449935,48.5453371 89.2343233,45.87568 89.2335025,45.6072229 C89.5035419,45.6063943 92.5782158,45.59148 92.5782158,45.59148 C95.2465993,45.5732514 96.4318179,43.7578514 96.4227892,41.9656514" id="Fill-16"></path>
                    <path d="M106.08306,38.3399057 L103.656809,38.34322 L103.65763,38.4931914 L103.68882,48.5520486 L111.246641,48.5255343 L111.244178,46.4408486 C111.244178,46.4408486 106.381006,46.4615629 106.102759,46.4623914 C106.101938,46.1740486 106.08306,38.3399057 106.08306,38.3399057" id="Fill-17"></path>
                    <path d="M135.416236,39.9371429 C136.610484,39.9959714 137.640573,40.3994857 138.477777,41.1344286 L138.581197,41.2255714 L140.025785,39.7896571 L139.917441,39.6827714 C138.660813,38.4515143 137.308975,37.8632286 135.531147,37.7737429 C132.150319,37.6146571 129.491785,39.8261143 129.345684,42.9183429 C129.2792,44.3385143 129.751975,45.6866 130.676182,46.7123714 C131.722688,47.8732 133.263308,48.5576 135.014871,48.6396286 C136.809935,48.7233143 138.751921,47.9046857 139.668742,47.0918571 L139.765595,47.0048571 L138.630444,45.2946857 L138.507326,45.3825143 C137.725114,45.9418 136.269035,46.5052286 135.112544,46.4480571 C133.104075,46.3544286 131.707914,44.9185143 131.793276,43.0326857 C131.882742,41.1717143 133.441419,39.8402 135.416236,39.9371429" id="Fill-18"></path>
                    <path d="M170.000818,38.3552343 L169.852255,38.3552343 L161.221663,38.3394914 L161.220843,40.4556629 L164.396473,40.4556629 C164.396473,40.7431771 164.384982,48.5508057 164.384982,48.5508057 L166.815337,48.5524629 C166.815337,48.5524629 166.819441,40.7456629 166.819441,40.4581486 C167.087839,40.4581486 169.995072,40.4589771 169.995072,40.4589771 L170.000818,38.3552343 Z" id="Fill-19"></path>
                    <path d="M194.395227,45.4466457 C193.809184,46.01836 192.990037,46.3307314 192.08717,46.32576 C191.217134,46.32576 190.41112,46.0042743 189.81769,45.4226171 C189.19389,44.8144457 188.841772,43.9684743 188.849159,43.1001314 C188.877066,41.1447029 190.154213,39.8902457 192.104406,39.90516 L192.105227,39.90516 C193.100844,39.9084743 193.929019,40.2175314 194.499467,40.8000171 C195.062528,41.3750457 195.358012,42.1862171 195.350625,43.1448743 C195.341596,44.0471886 195.00179,44.86416 194.395227,45.4466457 M197.717779,43.14156 C197.726808,41.6633886 197.20889,40.3136457 196.258417,39.34256 C195.246385,38.31016 193.824779,37.7583314 192.146267,37.7492171 C188.779392,37.7351314 186.505808,39.8836171 186.486109,43.0959886 C186.488571,43.96516 186.694589,44.8020171 187.102521,45.5850171 C188.016059,47.3606457 189.926034,48.4692743 192.08717,48.4808743 C194.249948,48.4966171 196.105751,47.4642171 197.067715,45.7134457 C197.080027,45.6902457 197.093159,45.6662171 197.106292,45.64136 C197.512582,44.8848743 197.7186,44.0447029 197.717779,43.14156" id="Fill-20"></path>
                    <path d="M213.380723,38.1577857 L213.232981,38.1577857 L210.955292,38.1693857 C210.955292,38.1693857 210.967604,43.1308714 210.969246,43.7042429 C210.514529,43.3181286 203.944117,37.7252714 203.944117,37.7252714 L203.959712,48.5281857 L206.376934,48.5182429 C206.376934,48.5182429 206.363801,43.5451571 206.36216,42.9726143 C206.816877,43.3587286 213.405346,48.9623571 213.405346,48.9623571 L213.380723,38.1577857 Z" id="Fill-21"></path>
                    <path d="M228.644681,45.5243657 C228.567527,43.0601943 226.217609,42.6086229 224.499699,42.2780229 L223.880003,42.15788 C222.966466,41.9863657 221.92981,41.7908229 221.915035,41.2431371 C221.910111,41.0434514 221.974953,40.8744229 222.115308,40.72528 C222.441161,40.3797657 223.093688,40.2422229 223.597652,40.2297943 C224.48,40.2041086 225.775204,40.3341943 226.937441,41.0939943 L227.059738,41.1751943 L228.140716,39.5122514 L228.033193,39.4277371 C226.81186,38.4649371 225.341828,38.0241371 223.537734,38.0788229 C222.125157,38.1177657 220.89972,38.5809371 220.179068,39.3490229 C219.67182,39.8892514 219.427225,40.5496229 219.447745,41.3127371 C219.5052,43.2723086 220.919419,43.9028514 223.684656,44.4397657 L224.081917,44.5110229 C225.058656,44.6817086 226.165078,44.8755943 226.190523,45.5840229 C226.20858,46.6048229 224.458659,46.7175086 224.109824,46.7299371 C222.822007,46.7614229 221.360182,46.2601371 220.201229,45.38848 L220.081394,45.2989943 L218.892071,46.9329371 L218.983179,47.0249086 C220.203691,48.2288229 222.25238,48.9389086 224.328975,48.8784229 L224.329795,48.8792514 C227.348656,48.7889371 228.682437,47.0771086 228.644681,45.5243657" id="Fill-22"></path>
                    <path d="M59.0296337,42.4172229 L57.5538559,45.2310514 L60.8723039,45.2343657 L59.1905082,42.1089943 L59.0296337,42.4172229 Z M59.2102072,37.7979371 L64.9984079,48.5519657 L62.3891211,48.5486514 C62.3891211,48.5486514 61.6307125,47.0679943 61.5560208,46.9238229 C61.3869384,46.9221657 57.060562,46.90808 56.8914796,46.9072514 C56.815967,47.0522514 56.0493505,48.5221371 56.0493505,48.5221371 L53.4261104,48.51468 L59.0805226,38.0373943 L59.2102072,37.7979371 Z" id="Fill-23"></path>
                    <path d="M151.072942,42.4172229 L149.597164,45.2310514 L152.915612,45.2343657 L151.233816,42.1089943 L151.072942,42.4172229 Z M151.253515,37.7979371 L157.040895,48.5519657 L154.432429,48.5486514 C154.432429,48.5486514 153.67402,47.0679943 153.599329,46.9238229 C153.430246,46.9221657 149.104691,46.90808 148.935608,46.9072514 C148.860096,47.0522514 148.092658,48.5221371 148.092658,48.5221371 L145.469418,48.51468 L151.12383,38.0373943 L151.253515,37.7979371 Z" id="Fill-24"></path>
                    <polygon id="Fill-25" points="119.102161 48.54368 121.553036 48.54368 121.553036 38.3431371 119.102161 38.3431371"></polygon>
                    <polygon id="Fill-26" points="177.261595 48.54368 179.711649 48.54368 179.711649 38.3431371 177.261595 38.3431371"></polygon>
                </g>
            </g>
        </g>
    </g>
</svg>