<?xml version="1.0" encoding="UTF-8"?>
<svg width="46px" height="46px" viewBox="0 0 46 46" version="1.1" xmlns="http://www.w3.org/2000/svg" xmlns:xlink="http://www.w3.org/1999/xlink">
    <!-- Generator: Sketch 39.1 (31720) - http://www.bohemiancoding.com/sketch -->
    <title>Group 2</title>
    <desc>Created with Sketch.</desc>
    <defs>
        <polygon id="path-1" points="23.5913306 0.282320633 0 0.282320633 0 37.1046749 23.5913306 37.1046749 23.5913306 0.282320633"></polygon>
    </defs>
    <g id="Symbols" stroke="none" stroke-width="1" fill="none" fill-rule="evenodd">
        <g id="Contact-Map" transform="translate(-962.000000, -148.000000)">
            <g id="Group-2">
                <g transform="translate(962.000000, 148.000000)">
                    <circle id="Oval" fill="#42809F" cx="23" cy="23" r="23"></circle>
                    <g id="three29-logo" transform="translate(8.000000, 2.000000)">
                        <g id="Group-3" transform="translate(0.000000, 0.524310)">
                            <mask id="mask-2" fill="white">
                                <use xlink:href="#path-1"></use>
                            </mask>
                            <g id="Clip-2"></g>
                            <path d="M23.5327359,12.4024261 L16.9027103,12.4024261 L19.3827103,0.641755131 C19.4335821,0.436064384 19.2308897,0.281997981 18.9781205,0.281997981 C18.522659,0.281997981 18.2190179,1.00151228 18.0163256,1.30964509 C13.9680436,8.34507527 8.95796667,12.4024261 0.708787179,12.4024261 C0.354274359,12.4024261 -0.000238461538,12.4540504 -0.000238461538,13.070316 C-0.000238461538,13.6349573 0.860607692,13.6349573 3.03617179,13.6349573 L4.60524872,13.6349573 L1.31606923,27.4501158 C1.11337692,28.5793984 0.758864103,29.7611119 0.758864103,30.891201 C0.758864103,36.3343429 6.93342821,37.1046749 10.9817103,37.1046749 C14.5244538,37.1046749 18.3708385,36.3343429 20.7999667,33.4587056 C21.5081974,32.6367492 22.6726846,30.6855103 22.6726846,29.5046034 C22.6726846,29.2989127 22.570941,29.0424042 22.2673,29.0424042 C21.7617615,29.0424042 21.5590692,29.9151783 21.4581205,30.2233111 C20.5972744,32.7399979 18.6236077,34.9993696 15.7898897,34.9993696 C14.2208128,34.9993696 12.8544282,34.3314796 12.8544282,32.5343071 C12.8544282,31.6865386 13.1405821,30.5983942 13.3424795,29.736913 C13.1612487,29.7506257 12.9792231,29.758692 12.7964026,29.758692 C8.97704359,29.758692 6.47001795,27.4041379 5.04083846,27.4041379 C4.47806923,27.4041379 3.96299231,27.7614752 3.96299231,28.379354 C3.96299231,28.9972329 4.64260769,28.61731 4.64260769,29.3303713 C4.64260769,29.5917195 4.45501795,29.758692 4.19747949,29.758692 C3.56476154,29.758692 3.33027436,29.0924153 3.33027436,28.5455199 C3.33027436,25.3359376 6.32932564,23.2435384 8.83635128,22.0311729 C11.6947103,20.7712163 13.9910949,18.7022094 13.9910949,15.3022623 C13.9910949,13.9229244 13.053941,12.9009237 11.6947103,12.9009237 C10.2424795,12.9009237 8.48501795,13.8761398 8.48501795,15.5160194 C8.48501795,15.9919313 8.83635128,16.3250696 9.28147949,16.3250696 C9.98414615,16.3250696 10.4062231,15.5878095 10.4062231,14.9457317 C10.4062231,14.7795658 10.3593256,14.6367922 10.2893769,14.4940187 C11.4371718,14.4222286 12.1636846,15.27887 12.1636846,16.3960531 C12.1636846,18.2980875 10.3823769,19.962166 8.53191538,19.962166 C7.07888974,19.962166 5.88419744,18.9159664 5.88419744,17.3946615 C5.88419744,13.5188025 10.6168641,12.1636635 13.6397615,12.1636635 C15.1603513,12.1636635 17.1737615,12.5831113 18.5059667,13.6349573 L22.3332744,13.6349573 L22.7044795,13.0211116 C23.1090692,13.0211116 22.8610692,13.2292222 22.8610692,12.664581 C22.8610692,12.3048238 23.8363769,12.4024261 23.5327359,12.4024261" id="Fill-1" fill="#FFFFFF" mask="url(#mask-2)"></path>
                        </g>
                        <path d="M4.80643077,26.454734 L4.85332821,26.5023251 C6.07186667,24.9334291 7.89927692,23.9582129 9.91427692,23.9582129 C11.6280205,23.9582129 13.0460718,24.7325781 14.3711231,25.2601144 L14.9847641,22.2715488 C13.8401487,22.5877479 12.6454564,22.7644 11.5779436,22.888621 C9.23466154,23.1257704 5.81353333,23.9106217 4.80643077,26.454734" id="Fill-4" fill="#F0F1F1"></path>
                        <path d="M21.9467282,22.4997445 C24.3369077,22.4997445 25.0157282,15.5570768 25.0157282,14.6294519 C25.0157282,13.9405896 24.6174974,13.4888765 23.9148308,13.4888765 C22.7431897,13.4888765 22.3688051,14.487485 22.0874205,15.390911 C21.7360872,16.5790775 20.9857282,20.0508147 20.9857282,21.2631802 C20.9857282,21.9052579 21.1971641,22.4997445 21.9467282,22.4997445 L21.9467282,22.4997445 Z M23.7979846,21.8576667 L23.7510872,21.8100756 C22.8838821,23.022441 21.4316513,23.6169276 20.0016769,23.6169276 C17.4954462,23.6169276 14.9645744,22.0956227 14.9645744,19.3135545 C14.9645744,15.152955 19.8148821,12.9177822 23.305959,12.9177822 C27.3820615,12.9177822 30.4518564,15.5328779 30.4518564,19.7894665 C30.4518564,26.0182663 25.0864718,30.5120041 19.1821641,30.5120041 C17.1433179,30.5120041 13.6291897,29.9651087 13.6291897,27.2790295 C13.6291897,25.4245863 15.3866513,24.4259779 17.0503179,24.4259779 C18.1512154,24.4259779 19.4166513,25.0196578 19.4166513,26.2804211 C19.4166513,27.9678919 17.8698308,28.3486214 17.8698308,29.1568651 C17.8698308,29.870733 18.7370359,29.870733 19.2052154,29.9417164 C22.1104718,29.9417164 22.5325487,26.6369518 23.1414205,24.401779 L23.7979846,21.8576667 Z" id="Fill-6" fill="#FFFFFF"></path>
                    </g>
                </g>
            </g>
        </g>
    </g>
</svg>