<?xml version="1.0" encoding="UTF-8"?>
<svg width="86px" height="89px" viewBox="0 0 86 89" version="1.1" xmlns="http://www.w3.org/2000/svg" xmlns:xlink="http://www.w3.org/1999/xlink">
    <!-- Generator: Sketch 39.1 (31720) - http://www.bohemiancoding.com/sketch -->
    <title>Fill 1</title>
    <desc>Created with Sketch.</desc>
    <defs></defs>
    <g id="Menu" stroke="none" stroke-width="1" fill="none" fill-rule="evenodd">
        <g id="t29-Nav" transform="translate(-157.000000, -454.000000)" fill="#FFFFFF">
            <path d="M177.617952,510.327916 L177.518203,510.22831 C179.66267,504.891865 186.944083,503.246145 191.931405,502.747398 C194.204346,502.488021 196.747667,502.116177 199.183665,501.453087 L197.87735,507.723145 C195.057646,506.615327 192.038014,504.991615 188.390448,504.991615 C184.101371,504.991615 180.211291,507.036475 177.617952,510.327916 Z M196.298224,511.956917 C196.298224,508.066837 200.038823,505.972244 203.57978,505.972244 C205.923746,505.972244 208.616834,507.218968 208.616834,509.862324 C208.616834,513.403139 205.32525,514.201276 205.32525,515.896871 C205.32525,517.393111 207.170612,517.393111 208.167962,517.542735 C214.352276,517.542735 215.25002,510.610444 216.546618,505.92237 L217.943108,500.585925 C215.997997,503.029783 212.905911,504.276506 209.8637,504.276506 C204.527256,504.276506 199.141079,501.084672 199.141079,495.24948 C199.141079,490.309032 202.449526,486.663609 206.668293,484.429539 C203.833012,482.229767 199.554224,481.351887 196.320232,481.351887 C189.886545,481.351887 179.812294,484.194743 179.812294,492.323882 C179.812294,495.51586 182.355758,497.710201 185.447986,497.710201 C189.387798,497.710201 193.178272,494.219119 193.178272,490.229289 C193.178272,488.022372 191.807362,486.30234 189.607447,486.233458 C189.468541,486.220311 189.326634,486.22174 189.190443,486.239317 C189.189729,486.23946 189.046964,486.262183 188.980084,486.280618 C188.386875,486.444675 187.892845,486.993153 188.147077,487.342562 C188.370727,487.650098 188.956075,487.562353 189.107986,486.754784 C189.131994,486.627882 189.213451,486.572434 189.325776,486.559144 C189.395658,486.756642 189.437816,486.961428 189.437816,487.187079 C189.437816,488.533551 188.540072,490.079666 187.043832,490.079666 C186.096214,490.079666 185.348237,489.38142 185.348237,488.38407 C185.348237,484.942862 189.088693,482.898002 192.180779,482.898002 C195.073365,482.898002 197.068351,485.042612 197.068351,487.935056 C197.068351,495.066988 192.180779,499.405939 186.096214,502.049153 C180.759912,504.592617 174.3761,508.981444 174.3761,515.714236 C174.3761,516.861353 174.874989,518.2577 176.221462,518.2577 C176.770083,518.2577 177.16908,517.908578 177.16908,517.360099 C177.16908,515.86386 175.722715,516.661854 175.722715,515.365256 C175.722715,514.068515 176.819958,513.320395 178.016949,513.320395 C181.05916,513.320395 186.395462,518.2577 194.524744,518.2577 C194.91431,518.2577 195.302017,518.24198 195.687152,518.212684 C195.25743,520.01989 194.649216,522.30312 194.649216,524.080315 C194.649216,527.850782 197.557809,529.251131 200.897267,529.251131 C206.929813,529.251131 211.562011,526.019425 214.202652,518.739584 C214.230662,518.662271 214.610652,518.655697 214.912616,518.549517 C215.265597,518.425473 214.691967,518.592818 215.499822,518.352876 C215.153843,520.846466 212.948783,524.43444 211.562011,526.019425 C206.391196,532.051971 198.204036,533.667824 190.663389,533.667824 C182.045506,533.667824 168.903036,532.051971 168.903036,520.633248 C168.903036,518.263273 169.657015,515.785689 170.088023,513.415572 L177.090052,484.437828 L173.750594,484.437828 C172.841132,484.437828 172.041137,484.437685 171.340177,484.428682 L166.931058,484.428682 L167.381501,482.562455 L170.317818,482.517297 C182.19956,482.517297 197.282712,472.890631 205.637074,458.583895 C206.067939,457.937525 206.714309,456.429424 207.683935,456.429424 C208.222553,456.429424 208.672425,456.700519 208.319015,458.242203 L203.267099,481.852349 L216.088886,481.852349 C216.360981,481.840487 216.630361,481.833771 216.89574,481.833771 C225.573644,481.833771 232.106937,487.31984 232.106937,496.246973 C232.106937,509.313703 220.686071,518.739584 208.11823,518.739584 C203.779279,518.739584 196.298224,517.592467 196.298224,511.956917 Z M233.313647,473.912562 C227.589351,466.629862 219.547528,461.336575 210.644546,458.985179 C210.916927,457.77604 211.108709,456.320243 210.17138,455.143544 C209.830975,454.716537 209.055131,454 207.683935,454 C205.503312,454 204.401926,455.893665 203.810004,456.911022 C203.738407,457.034351 203.657379,457.173828 203.611077,457.24371 C203.467455,457.481794 203.394572,457.604408 203.321404,457.72688 C202.105548,457.624987 200.892551,457.573397 199.71328,457.573397 C188.304132,457.573397 177.577938,462.016386 169.510392,470.083789 C161.442988,478.151335 157,488.877529 157,500.286677 C157,511.695825 161.442988,522.422162 169.510392,530.489565 C177.577938,538.557112 188.304132,543.0001 199.71328,543.0001 C211.122428,543.0001 221.848765,538.557112 229.916168,530.489565 C237.983714,522.422162 242.426703,511.695825 242.426703,500.286677 C242.426703,495.417254 241.613846,490.641005 240.010855,486.090408 C238.461311,481.692007 236.207948,477.594711 233.313647,473.912562 Z M218.296804,484.614175 C218.799551,484.553297 219.245279,484.614175 218.880437,484.614175 L218.296804,484.614175 Z M214.302401,487.020592 C213.554282,489.514181 211.958293,496.795595 211.958293,499.339202 C211.958293,500.685674 212.407165,501.932541 214.003153,501.932541 C219.090082,501.932541 220.536447,487.369571 220.536447,485.424603 C220.536447,483.978238 219.688578,483.030762 218.192481,483.030762 C215.698749,483.030762 214.900897,485.125355 214.302401,487.020592 Z" id="Fill-1"></path>
        </g>
    </g>
</svg>